<svg width="24" height="24" viewBox="0 0 24 24" fill="none" xmlns="http://www.w3.org/2000/svg">
<path fill-rule="evenodd" clip-rule="evenodd" d="M12 24C18.6274 24 24 18.6274 24 12C24 5.37258 18.6274 0 12 0C5.37258 0 0 5.37258 0 12C0 18.6274 5.37258 24 12 24ZM13.8072 6.28415C14.8467 6.46926 15.8408 6.79246 16.7679 7.23113C16.7759 7.2347 16.7828 7.24066 16.7868 7.24898C18.4294 9.74055 19.2407 12.5511 18.9374 15.7867C18.9362 15.8004 18.9293 15.8129 18.9184 15.8212C17.6743 16.7634 16.4692 17.3354 15.2807 17.7146C15.2617 17.7205 15.2411 17.7134 15.2296 17.6967C14.955 17.3027 14.7056 16.8872 14.4872 16.451C14.4746 16.4254 14.486 16.3944 14.5118 16.3843C14.908 16.2301 15.2847 16.0456 15.647 15.8272C15.6757 15.8099 15.6774 15.7677 15.651 15.7474C15.5742 15.6885 15.498 15.6266 15.4251 15.5647C15.4114 15.5534 15.393 15.551 15.3775 15.5587C13.0252 16.6795 10.448 16.6795 8.06759 15.5587C8.05211 15.5516 8.03375 15.554 8.02058 15.5653C7.94777 15.6272 7.8715 15.6885 7.79525 15.7474C7.76888 15.7677 7.77117 15.8099 7.79983 15.8272C8.16218 16.0415 8.53887 16.2301 8.93446 16.3849C8.96025 16.395 8.9723 16.4254 8.95968 16.451C8.74584 16.8879 8.49644 17.3033 8.21665 17.6973C8.20461 17.7134 8.18455 17.7205 8.16562 17.7146C6.98285 17.3354 5.7777 16.7634 4.53357 15.8212C4.52325 15.8129 4.5158 15.7998 4.51465 15.7861C4.26124 12.9874 4.77781 10.1536 6.66351 7.24839C6.66808 7.24066 6.67496 7.2347 6.68299 7.23113C7.61064 6.79186 8.60479 6.46867 9.64367 6.28415C9.66259 6.28117 9.6815 6.2901 9.69126 6.30736C9.81969 6.54187 9.96645 6.84246 10.0656 7.08827C11.1607 6.91567 12.273 6.91567 13.391 7.08827C13.4901 6.84781 13.6318 6.54187 13.7596 6.30736C13.7694 6.28951 13.7883 6.28058 13.8072 6.28415ZM8.00796 12.5702C8.00796 13.4035 8.59848 14.082 9.31516 14.082C10.0433 14.082 10.6223 13.4035 10.6223 12.5702C10.6338 11.7428 10.049 11.0584 9.31516 11.0584C8.58703 11.0584 8.00796 11.7369 8.00796 12.5702ZM12.8411 12.5702C12.8411 13.4035 13.4317 14.082 14.1483 14.082C14.8822 14.082 15.4555 13.4035 15.4555 12.5702C15.467 11.7428 14.8822 11.0584 14.1483 11.0584C13.4202 11.0584 12.8411 11.7369 12.8411 12.5702Z" fill="#FDA085" fill-opacity="0.7"/>
</svg>
