<svg width="24" height="24" viewBox="0 0 24 24" fill="none" xmlns="http://www.w3.org/2000/svg">
<path fill-rule="evenodd" clip-rule="evenodd" d="M12 24C18.6274 24 24 18.6274 24 12C24 5.37258 18.6274 0 12 0C5.37258 0 0 5.37258 0 12C0 18.6274 5.37258 24 12 24ZM19.4735 9.16082C19.4735 9.01848 19.4735 8.87744 19.4644 8.73639C20.0664 8.27167 20.5868 7.69646 21 7.0361C20.4388 7.30194 19.8428 7.47612 19.2328 7.55282C19.8751 7.1427 20.3559 6.49729 20.5856 5.73748C19.9811 6.11966 19.3205 6.38939 18.6313 6.53433C17.4662 5.21297 15.5168 5.14927 14.2773 6.39199C13.4778 7.19339 13.1389 8.38802 13.387 9.52804C10.9122 9.3961 8.60695 8.14948 7.04449 6.09886C6.22791 7.59897 6.64473 9.51764 7.99695 10.4815C7.50701 10.4659 7.02803 10.3249 6.60024 10.0708V10.1124C6.60024 11.6749 7.63315 13.0203 9.06886 13.3297C8.61609 13.4616 8.14077 13.4811 7.67946 13.3862C8.08288 14.7232 9.23766 15.639 10.5545 15.6656C9.46435 16.5788 8.11822 17.0747 6.73248 17.0734C6.48751 17.0728 6.24314 17.0572 6 17.026C7.40768 17.9892 9.04509 18.5001 10.7172 18.4975V18.5001C16.3778 18.5001 19.4735 13.498 19.4735 9.16082Z" fill="#FDA085" fill-opacity="0.7"/>
</svg>
